<svg width="2152" height="533" viewBox="0 0 2152 533" fill="none" xmlns="http://www.w3.org/2000/svg">
<path d="M142.5 109C119.5 109 103.5 123 103.5 155.5V163.5C103.5 167.366 106.634 170.5 110.5 170.5H177L166.645 202.568C163.578 212.064 154.737 218.5 144.758 218.5H125.5C113.35 218.5 103.5 228.35 103.5 240.5V417.5H47.5V240.5C47.5 228.35 37.6503 218.5 25.5 218.5H1L11.9857 185.543C14.9802 176.559 23.3872 170.5 32.8567 170.5H40.5C44.366 170.5 47.5 167.366 47.5 163.5V155.5C47.5 92.5 87.5 61 138 61C160.5 61 180.5 67.5 201 82L179.5 121.5C166 113 156 109 142.5 109ZM395.777 170.5H455.777L300.777 531.5H239.777L285.491 425.9C288.235 419.562 288.344 412.393 285.795 405.974L192.277 170.5H252.277L295.277 283L302.104 302.008C308.631 320.182 334.163 320.654 341.356 302.732L349.277 283L395.777 170.5ZM623.074 165.5C647.074 165.5 670.574 173.5 685.574 187L660.574 232.5C646.574 223 634.074 219 619.074 219C579.074 219 553.574 248.5 553.574 297V417.5H497.574V196.514C497.574 191.414 500.797 186.872 505.61 185.187L547.574 170.5L547.857 192.033C547.922 196.976 554.682 199.046 557.903 195.297C575.644 174.646 597.073 165.5 623.074 165.5ZM824.418 165.5C908.509 165.5 956.164 218.752 952.033 305.841C951.787 311.024 947.434 315 942.246 315H761.847C757.637 315 754.349 318.71 755.338 322.803C762.949 354.29 791.649 374 831.918 374C859.918 374 887.918 364 902.918 348.5L936.918 381.5C912.418 408 872.918 424.5 830.418 424.5C748.918 424.5 696.418 373 696.418 294C696.418 217.5 747.918 165.5 824.418 165.5ZM825.918 214C789.955 214 765.472 231.857 756.388 263.257C755.166 267.479 758.493 271.5 762.888 271.5H890.072C894.253 271.5 897.534 267.84 896.616 263.761C889.744 233.218 863.81 214 825.918 214Z" fill="url(#paint0_linear_3_93)"/>
<path d="M1151.5 357.5L1167 402.5C1148 411 1132 414.5 1111.5 414.5C1060.5 414.5 1030.5 385 1030.5 326V233.5C1030.5 221.35 1020.65 211.5 1008.5 211.5H984L994.583 179.158C997.542 170.116 1005.98 164 1015.49 164H1023.52C1027.38 164 1030.51 160.877 1030.52 157.018L1030.64 113L1086 93.5V157C1086 160.866 1089.14 164 1093 164H1157L1141.57 198.978C1138.21 206.589 1130.68 211.5 1122.36 211.5H1108C1095.85 211.5 1086 221.35 1086 233.5V326C1086 351 1097.5 365 1120.5 365C1130.5 365 1142 362 1151.5 357.5ZM1320.58 159C1405.55 159 1453.32 213.367 1448.05 302.074C1447.84 305.7 1444.79 308.5 1441.16 308.5H1258.01C1253.8 308.5 1250.51 312.21 1251.5 316.303C1259.11 347.79 1287.81 367.5 1328.08 367.5C1356.08 367.5 1384.08 357.5 1399.08 342L1433.08 375C1408.58 401.5 1369.08 418 1326.58 418C1245.08 418 1192.58 366.5 1192.58 287.5C1192.58 211 1244.08 159 1320.58 159ZM1322.08 207.5C1286.12 207.5 1261.64 225.357 1252.55 256.757C1251.33 260.979 1254.66 265 1259.05 265H1386.24C1390.42 265 1393.7 261.34 1392.78 257.261C1385.91 226.718 1359.98 207.5 1322.08 207.5ZM1614.61 416.5C1534.61 416.5 1482.61 365.5 1482.61 287.5C1482.61 211 1535.61 158.5 1614.11 158.5C1647.84 158.5 1677.19 169.474 1702.55 191.833C1705.41 194.36 1705.52 198.743 1702.92 201.54L1678.56 227.693C1675.86 230.593 1671.3 230.648 1668.24 228.13C1653.71 216.174 1634.61 209.5 1615.11 209.5C1570.11 209.5 1538.61 241.5 1538.61 287.5C1538.61 334 1569.61 365.5 1615.11 365.5C1636.36 365.5 1656.03 358.448 1670.68 345.384C1673.75 342.647 1678.51 342.607 1681.3 345.633L1705.98 372.466C1708.56 375.265 1708.44 379.621 1705.6 382.15C1679.4 405.465 1650.32 416.5 1614.61 416.5ZM1891.45 159C1955.95 159 1996.95 204.5 1996.95 274.5V411H1940.95V278C1940.95 234.5 1918.45 209.5 1880.95 209.5C1839.95 209.5 1811.45 239.5 1811.45 281V411H1755.45V80.5L1811.45 61V135.136C1811.45 155.365 1840.4 168.223 1859.93 162.963C1869.72 160.328 1880.24 159 1891.45 159Z" fill="white"/>
<path d="M2029.5 0L2036.8 46.2825C2042.02 79.4472 2067.4 105.819 2100.34 112.314L2152 122.5L2107.6 127.086C2071.1 130.856 2041.84 158.976 2036.63 195.299L2029.5 245L2026.11 200.587C2023.16 161.808 1992.74 130.773 1954.03 127.038L1907 122.5L1960.2 112.49C1994.88 105.965 2021.19 77.4898 2024.95 42.4041L2029.5 0Z" fill="url(#paint1_linear_3_93)"/>
<defs>
<linearGradient id="paint0_linear_3_93" x1="-146.5" y1="61" x2="648.579" y2="617.59" gradientUnits="userSpaceOnUse">
<stop stop-color="#00FF2B"/>
<stop offset="1" stop-color="#CFFF00"/>
</linearGradient>
<linearGradient id="paint1_linear_3_93" x1="1919.59" y1="29.5384" x2="2079.6" y2="103.611" gradientUnits="userSpaceOnUse">
<stop stop-color="#00FF2B"/>
<stop offset="1" stop-color="#CFFF00"/>
</linearGradient>
</defs>
</svg>
